/* XPM */
static char *result[] = {
/* columns rows colors chars-per-pixel */
"32 32 5 1 ",
"  c #262B44",
". c #565C71",
"X c #8B9BB4",
"o c #B9BFC7",
"O c #EBF0F1",
/* pixels */
"                                ",
" XXXXXXXXXXXXXX. XXXXXXXXXXXXXX ",
" X            X. X            X ",
" X oooooooooo X. X oooooooooo X ",
" X oOOOOOOOOo X. X oOOOOOOOOo X ",
" X oOOOOOOOOo X. X oOOOOOOOOo X ",
" X oOOOOOOOOo X. X oOOOOOOOOo X ",
" X oOOOOOOOOo X. X oOOOOOOOOo X ",
" X oOOOOOOOOo X. X oOOOOOOOOo X ",
" X oOOOOOOOOo X. X oOOOOOOOOo X ",
" X oOOOOOOOOo X. X oOOOOOOOOo X ",
" X oooooooooo X. X oooooooooo X ",
" X            X. X            X ",
" XXXXXXXXXXXXXX. XXXXXXXXXXXXXX ",
" XXXXXXXXXXXXXX. XXXXXXXXXXXXXX ",
" XXXXXXXXXXXXXX. XXXXXXXXXXXXXX ",
" XXXXXXXXXXXXXX. XXXXXXXXXXXXXX ",
" XXXXXXXXXX   X. X   XXXXXXXXXX ",
" XXXXXXXXXXXXXX. XXXXXXXXXXXXXX ",
" XXXXXXXXXXXXXX. XXXXXXXXXXXXXX ",
" XXXXXXXXXXXXXX. XXXXXXXXXXXXXX ",
" XXXXXXXXXXXXXX. XXXXXXXXXXXXXX ",
" XXXXXXXXXXXXXX. XXXXXXXXXXXXXX ",
" XXXXXXXXXXXXXX. XXXXXXXXXXXXXX ",
" XXXXXXXXXXXXXX. XXXXXXXXXXXXXX ",
" XXXXXXXXXXXXXX. XXXXXXXXXXXXXX ",
" XXXXXXXXXXXXXX. XXXXXXXXXXXXXX ",
" XXXXXXXXXXXXXX. XXXXXXXXXXXXXX ",
" XXXXXXXXXXXXXX. XXXXXXXXXXXXXX ",
" XXXXXXXXXXXXXX. XXXXXXXXXXXXXX ",
" XXXXXXXXXXXXXX. XXXXXXXXXXXXXX ",
"                                "
};
