/* XPM */
static char *result[] = {
/* columns rows colors chars-per-pixel */
"32 32 9 1 ",
"  c #CA9800",
". c #F6DC00",
"X c #32BC9D",
"o c #48C0A6",
"O c #5CD1B7",
"+ c #8CEAD7",
"@ c #ACF0E2",
"# c #C4F4EA",
"$ c None",
/* pixels */
"$$$$$$$$$$$$$$$$$$$$$$$$$$$$$$$$",
"$$$$$$$$$$$$$$$$$$$$$$$$$$$$$$$$",
"$$$$$$$$$$$$$$$$$$$$$$$$$$$$$$$$",
"$$$$$$$$$$$OO++@@++OO$$$$$$$$$$$",
"$$$$$$$$$$$++######++$$$$$$$$$$$",
"$$$$$$$$$$O##########O$$$$$$$$$$",
"$$$$$$$$$$O##########O$$$$$$$$$$",
"$$$$$$$$$O+##########+O$$$$$$$$$",
"$$$$$$$$$O@##########@O$$$$$$$$$",
"$$$$$$$$$o@# . ## . #@o$$$$$$$$$",
"$$$$$$$$$o@# . ## . #@o$$$$$$$$$",
"$$$$$$$$$o@##########@o$$$$$$$$$",
"$$$$$$$$$o@##########+o$$$$$$$$$",
"$$$$$$$$$o+#+ooXXoo+#+o$$$$$$$$$",
"$$$$$$$$$+############+$$$$$$$$$",
"$$$$$$$$$+############+$$$$$$$$$",
"$$$$$$$$o##############o$$$$$$$$",
"$$$$$$oO+##############@Oo$$$$$$",
"$$$$$oO+################@Oo$$$$$",
"$$$$$$X++@+############@+X$$$$$$",
"$$$$$$$O++##########@#@+O$$$$$$$",
"$$$$$$$O+@###########@@@+X$$$$$$",
"$$$$$$$XX+@########@##++O$$$$$$$",
"$$$$$XX+@######@###@#@#@+XX$$$$$",
"$$$$$OO@@###@##@###+@#+#@+O$$$$$",
"$$$$$XO++@+++##+###+O@@++OX$$$$$",
"$$$$$XOXO+OO+#@+##@+O++OXXX$$$$$",
"$$$$$$$XO$$XO@++@#@++OX$$$$$$$$$",
"$$$$$$$$X$XO+@+O+#@O+OX$$$$$$$$$",
"$$$$$$$$$$$+O+OXO++OXX$$$$$$$$$$",
"$$$$$$$$$$XOXOO$XOOX$$$$$$$$$$$$",
"$$$$$$$$$$$$$$$$$$$$$$$$$$$$$$$$"
};
