/* XPM */
static char *result[] = {
/* columns rows colors chars-per-pixel */
"32 32 9 1 ",
"  c #CA9800",
". c #F6DC00",
"X c #32BC9D",
"o c #48C0A6",
"O c #5CD1B7",
"+ c #8CEAD7",
"@ c #ACF0E2",
"# c #C4F4EA",
"$ c None",
/* pixels */
"$$$$$$$$$$$$$$$$$$$$$$$$$$$$$$$$",
"$$$$$$$$$$$$$$$$$$$$$$$$$$$$$$$$",
"$$$$$$$$$$$$$OOOOOO$$$$$$$$$$$$$",
"$$$$$$$$$$$++######++$$$$$$$$$$$",
"$$$$$$$$$$$@########@$$$$$$$$$$$",
"$$$$$$$$$$O##########O$$$$$$$$$$",
"$$$$$$$$$O+##########+O$$$$$$$$$",
"$$$$$$$$$O@##########@O$$$$$$$$$",
"$$$$$$$$$o@## #### ##@o$$$$$$$$$",
"$$$$$$$$$o@# . ## . #@o$$$$$$$$$",
"$$$$$$$$$o@#+ +##+ +#@o$$$$$$$$$",
"$$$$$$$$$o@##########+o$$$$$$$$$",
"$$$$$$$$$o+##@+oo+@##+o$$$$$$$$$",
"$$$$$$$$$+############+$$$$$$$$$",
"$$$$$$$$$+############+$$$$$$$$$",
"$$$$$$$$o##############o$$$$$$$$",
"$$$$$$$$o##############o$$$$$$$$",
"$$$$$$$o+##############+o$$$$$$$",
"$$$$$$$+@###############O$$$$$$$",
"$$$$$$o@@+###########@+##o$$$$$$",
"$$$$$$$O@@###########@@#+$$$$$$$",
"$$$$$XX++###@######@##@+OXX$$$$$",
"$$$XXOOO+@##@#@####@###@XOOXX$$$",
"$$$$$XO@###@+#@####+@###@OX$$$$$",
"$$$$$XO+@#@@O#+###@+@##@+OX$$$$$",
"$$$$$$$XO+OXO+@#+#+@O++OX$$$$$$$",
"$$$$$$$$XOXO++#@+@+@+XOX$$$$$$$$",
"$$$$$$$$$$$O++@+O+O@+$$$$$$$$$$$",
"$$$$$$$$$$$OXO+OO+X+X$$$$$$$$$$$",
"$$$$$$$$$$$OOXOXXOXX$$$$$$$$$$$$",
"$$$$$$$$$$$OX$X$$X$$$$$$$$$$$$$$",
"$$$$$$$$$$$$$$$$$$$$$$$$$$$$$$$$"
};
