/* XPM */
static char *result[] = {
/* columns rows colors chars-per-pixel */
"32 32 4 1 ",
"  c #BF4830",
". c #FDAE35",
"X c #FFD943",
"o c None",
/* pixels */
"oooooooooooooooooooooooooooooooo",
"oooooooooooooooooo ooooooooooooo",
"ooooooooooooooooo . oooooooooooo",
"ooooooooooooooo.... oooooooooooo",
"oooooooooooooo......  oooooooooo",
"oooooooooooooo ...XX  oooooooooo",
"ooooooooooooo....XXX  oooooooooo",
"ooooooooooooo ...XX.  oooooooooo",
"ooooooooooooo.. .XX.   ooooooooo",
"ooooooooooooo.. XX...  ooooooooo",
"ooooooooooooo.   X...  ooooooooo",
"oooooooooooo...   ...  ooooooooo",
"oooooooooooo...   ...  ooooooooo",
"oooooooooooo...   ...  ooooooooo",
"oooooooooooo..X  ....  ooooooooo",
"oooooooooooo..X  ....  ooooooooo",
"oooooooooooo..X   ...  ooooooooo",
"oooooooooooo.XX   ...  ooooooooo",
"oooooooooooo.X.   ...  ooooooooo",
"ooooooooooooo.   ....  ooooooooo",
"ooooooooooooo.. .....  ooooooooo",
"ooooooooooooo.. ....  oooooooooo",
"ooooooooooooo ......  oooooooooo",
"ooooooooooooo.......  oooooooooo",
"oooooooooooooo .....  oooooooooo",
"oooooooooooooo.....  ooooooooooo",
"ooooooooooooooo.... oooooooooooo",
"ooooooooooooooooo   oooooooooooo",
"oooooooooooooooooooooooooooooooo",
"oooooooooooooooooooooooooooooooo",
"oooooooooooooooooooooooooooooooo",
"oooooooooooooooooooooooooooooooo"
};
