/* XPM */
static char *result[] = {
/* columns rows colors chars-per-pixel */
"32 32 6 1 ",
"  c #BF4830",
". c #C24F30",
"X c #FBAB35",
"o c #FDAE35",
"O c #FFD943",
"+ c None",
/* pixels */
"++++++++++++++++++++++++++++++++",
"++++++++++++++++++++++++++++++++",
"+++++++++++++oo+++++++++++++++++",
"+++++++++++oo ooo+++++++++++++++",
"++++++++++oooooooo +++++++++++++",
"+++++++++o  ooooooo ++++++++++++",
"+++++++++o oooooooo ++++++++++++",
"+++++++++o oooooooOo +++++++++++",
"+++++++++o ooo.oXOOO +++++++++++",
"++++++++o oooo.o OOo +++++++++++",
"++++++++o ooo     oo +++++++++++",
"++++++++o oooo    ooo ++++++++++",
"++++++++o oooo OO ooo ++++++++++",
"++++++++o oooo OO ooo ++++++++++",
"++++++++o oooO    ooo ++++++++++",
"++++++++o ooOO    ooo ++++++++++",
"++++++++o ooOO oo ooo ++++++++++",
"++++++++o oOOO oo ooo ++++++++++",
"++++++++o oOOo    ooo ++++++++++",
"++++++++o oOo     oo +++++++++++",
"++++++++o oOoo.o ooo +++++++++++",
"+++++++++o ooo.oXooo +++++++++++",
"+++++++++o ooooooooo +++++++++++",
"+++++++++o oooooooo ++++++++++++",
"++++++++++o ooooooo ++++++++++++",
"+++++++++++ooooooo +++++++++++++",
"++++++++++++o ooo+++++++++++++++",
"+++++++++++++oo+++++++++++++++++",
"++++++++++++++++++++++++++++++++",
"++++++++++++++++++++++++++++++++",
"++++++++++++++++++++++++++++++++",
"++++++++++++++++++++++++++++++++"
};
