/* XPM */
static char *result[] = {
/* columns rows colors chars-per-pixel */
"32 32 5 1 ",
"  c #BF4830",
". c #C24F30",
"X c #FDAE35",
"o c #FFD943",
"O c None",
/* pixels */
"OOOOOOOOOOOOOOOOOOOOOOOOOOOOOOOO",
"OOOOOOOOOOOOOOOOOOOOOOOOOOOOOOOO",
"OOOOOOOOOOOOOOOOOX   OOOOOOOOOOO",
"OOOOOOOOOOOOOOOXXXXX  OOOOOOOOOO",
"OOOOOOOOOOOOOOXXXXXX   OOOOOOOOO",
"OOOOOOOOOOOOOXXXXXXoXX  OOOOOOOO",
"OOOOOOOOOOOOXXXXXXoooX  OOOOOOOO",
"OOOOOOOOOOOO XXXXXooXX  OOOOOOOO",
"OOOOOOOOOOOXXXXX oooXX   OOOOOOO",
"OOOOOOOOOOOXXX.X ooXXXX  OOOOOOO",
"OOOOOOOOOOOXX.    oXXXX  OOOOOOO",
"OOOOOOOOOOO XX     XXXX  OOOOOOO",
"OOOOOOOOOOO XX oo  XXXX  OOOOOOO",
"OOOOOOOOOOO XX oo  XXXX  OOOOOOO",
"OOOOOOOOOOO XX    XXXXX  OOOOOOO",
"OOOOOOOOOOO Xo    XXXXX  OOOOOOO",
"OOOOOOOOOOO Xo XX  XXXX  OOOOOOO",
"OOOOOOOOOOO oo XX  XXXX  OOOOOOO",
"OOOOOOOOOOO oo     XXXX  OOOOOOO",
"OOOOOOOOOOOXo.    XXXXX  OOOOOOO",
"OOOOOOOOOOOXXX.X XXXXXX  OOOOOOO",
"OOOOOOOOOOOXXXXX XXXXX  OOOOOOOO",
"OOOOOOOOOOOO XXXXXXXXX  OOOOOOOO",
"OOOOOOOOOOOOXXXXXXXXXX  OOOOOOOO",
"OOOOOOOOOOOOOXXXXXXXX   OOOOOOOO",
"OOOOOOOOOOOOOOXXXXXX   OOOOOOOOO",
"OOOOOOOOOOOOOOOXXXXX  OOOOOOOOOO",
"OOOOOOOOOOOOOOOOOX  OOOOOOOOOOOO",
"OOOOOOOOOOOOOOOOOOOOOOOOOOOOOOOO",
"OOOOOOOOOOOOOOOOOOOOOOOOOOOOOOOO",
"OOOOOOOOOOOOOOOOOOOOOOOOOOOOOOOO",
"OOOOOOOOOOOOOOOOOOOOOOOOOOOOOOOO"
};
