/* XPM */
static char *result[] = {
/* columns rows colors chars-per-pixel */
"32 32 4 1 ",
"  c #BF4830",
". c #FDAE35",
"X c #FFD943",
"o c None",
/* pixels */
"oooooooooooooooooooooooooooooooo",
"oooooooooooooooooooooooooooooooo",
"oooooooooooooo..oooooooooooooooo",
"oooooooooooooo .oooooooooooooooo",
"oooooooooooooo...ooooooooooooooo",
"ooooooooooooo....ooooooooooooooo",
"ooooooooooooo....ooooooooooooooo",
"ooooooooooooo.... oooooooooooooo",
"ooooooooooooo . X.oooooooooooooo",
"ooooooooooooo . X.oooooooooooooo",
"ooooooooooooo .  .oooooooooooooo",
"ooooooooooooo .  .oooooooooooooo",
"ooooooooooooo .  .oooooooooooooo",
"ooooooooooooo .  .oooooooooooooo",
"ooooooooooooo .  .oooooooooooooo",
"ooooooooooooo .  .oooooooooooooo",
"ooooooooooooo X  .oooooooooooooo",
"ooooooooooooo X  .oooooooooooooo",
"ooooooooooooo X  .oooooooooooooo",
"ooooooooooooo X  .oooooooooooooo",
"ooooooooooooo X ..oooooooooooooo",
"ooooooooooooo.. ..oooooooooooooo",
"ooooooooooooo.... oooooooooooooo",
"ooooooooooooo.... oooooooooooooo",
"ooooooooooooo....ooooooooooooooo",
"oooooooooooooo ..ooooooooooooooo",
"oooooooooooooo..oooooooooooooooo",
"oooooooooooooo..oooooooooooooooo",
"oooooooooooooooooooooooooooooooo",
"oooooooooooooooooooooooooooooooo",
"oooooooooooooooooooooooooooooooo",
"oooooooooooooooooooooooooooooooo"
};
