/* XPM */
static char *result[] = {
/* columns rows colors chars-per-pixel */
"32 32 4 1 ",
"  c #BF4830",
". c #FDAE35",
"X c #FFD943",
"o c None",
/* pixels */
"oooooooooooooooooooooooooooooooo",
"oooooooooooooooooooooooooooooooo",
"ooooooooooooo..ooooooooooooooooo",
"oooooooooooo.. ..ooooooooooooooo",
"oooooooooooo .... oooooooooooooo",
"ooooooooooo.......oooooooooooooo",
"ooooooooooo....... ooooooooooooo",
"ooooooooooo........ooooooooooooo",
"oooooooooo..... .XXooooooooooooo",
"oooooooooo. ... XX. oooooooooooo",
"oooooooooo. ..   X. oooooooooooo",
"oooooooooo. ...   . oooooooooooo",
"oooooooooo. ...   . oooooooooooo",
"oooooooooo. ...   . oooooooooooo",
"oooooooooo. ..X  .. oooooooooooo",
"oooooooooo. .XX  .. oooooooooooo",
"oooooooooo. .XX   . oooooooooooo",
"oooooooooo. XXX   . oooooooooooo",
"oooooooooo. XX.   . oooooooooooo",
"oooooooooo. X.   .. oooooooooooo",
"oooooooooo. X.. ... oooooooooooo",
"ooooooooooo.... ... oooooooooooo",
"ooooooooooo........ooooooooooooo",
"ooooooooooo....... ooooooooooooo",
"ooooooooooo. ..... ooooooooooooo",
"oooooooooooo..... oooooooooooooo",
"oooooooooooo.. ..ooooooooooooooo",
"oooooooooooooo.ooooooooooooooooo",
"oooooooooooooooooooooooooooooooo",
"oooooooooooooooooooooooooooooooo",
"oooooooooooooooooooooooooooooooo",
"oooooooooooooooooooooooooooooooo"
};
