/* XPM */
static char *result[] = {
/* columns rows colors chars-per-pixel */
"32 32 4 1 ",
"  c #BF4830",
". c #FDAE35",
"X c #FFD943",
"o c None",
/* pixels */
"oooooooooooooooooooooooooooooooo",
"ooooooooooooooooo oooooooooooooo",
"oooooooooooooooo..oooooooooooooo",
"oooooooooooooooo.. ooooooooooooo",
"ooooooooooooooo...  oooooooooooo",
"ooooooooooooooo..X. oooooooooooo",
"oooooooooooooo...X. oooooooooooo",
"oooooooooooooo ..X. oooooooooooo",
"oooooooooooooo. .X. oooooooooooo",
"oooooooooooooo. X.. oooooooooooo",
"oooooooooooooo.  .. oooooooooooo",
"oooooooooooooo.  .. oooooooooooo",
"oooooooooooooo.  .. oooooooooooo",
"oooooooooooooo.  .. oooooooooooo",
"oooooooooooooo.  .. oooooooooooo",
"oooooooooooooo.  .. oooooooooooo",
"oooooooooooooo.  .. oooooooooooo",
"ooooooooooooooX  .. oooooooooooo",
"ooooooooooooooX  .. oooooooooooo",
"oooooooooooooo.  .. oooooooooooo",
"oooooooooooooo. ... oooooooooooo",
"oooooooooooooo. ... oooooooooooo",
"oooooooooooooo .... oooooooooooo",
"oooooooooooooo..... oooooooooooo",
"ooooooooooooooo.... oooooooooooo",
"ooooooooooooooo... ooooooooooooo",
"ooooooooooooooo... ooooooooooooo",
"ooooooooooooooooo oooooooooooooo",
"oooooooooooooooooooooooooooooooo",
"oooooooooooooooooooooooooooooooo",
"oooooooooooooooooooooooooooooooo",
"oooooooooooooooooooooooooooooooo"
};
