/* XPM */
static char *result[] = {
/* columns rows colors chars-per-pixel */
"32 32 87 1 ",
"  c #1F2831",
". c #202932",
"X c #202A32",
"o c #212A32",
"O c #222B33",
"+ c #232D35",
"@ c #24303B",
"# c #25333F",
"$ c #303233",
"% c #262B44",
"& c #272C45",
"* c #282E46",
"= c #292E46",
"- c #283540",
"; c #283541",
": c #2E344B",
"> c #2F354C",
", c #2F364D",
"< c #31374E",
"1 c #34394D",
"2 c #3A3E51",
"3 c #3C4247",
"4 c #3F4850",
"5 c #40485E",
"6 c #464E64",
"7 c #4B5469",
"8 c #4C556B",
"9 c #4B5B68",
"0 c #545967",
"q c #555F75",
"w c #516576",
"e c #5F6370",
"r c #5B667B",
"t c #5B667C",
"y c #666A76",
"u c #696D79",
"i c #69758B",
"p c #6A778D",
"a c #60798D",
"s c #787C87",
"d c #727F96",
"f c #7D828C",
"g c #6D899F",
"h c #728097",
"j c #748299",
"k c #76839B",
"l c #77859C",
"z c #79879F",
"x c #7C8BA2",
"c c #7D8BA3",
"v c #7D8CA4",
"b c #7CA3C0",
"n c #808FA7",
"m c #8393AB",
"M c #8594AD",
"N c #8595AD",
"B c #8695AE",
"V c #9499A2",
"C c #959AA3",
"Z c #8797B0",
"A c #8898B1",
"S c #8998B1",
"D c #8999B2",
"F c #8B9BB4",
"G c #9FA5AD",
"H c #A9AEB7",
"J c #AAAFB8",
"K c #82A6C2",
"L c #82A7C2",
"P c #84A8C3",
"I c #B4BAC2",
"U c #B6BCC4",
"Y c #BAC0C8",
"T c #BDC3CA",
"R c #BFC4CB",
"E c #C4C9D0",
"W c #C4CAD0",
"Q c #C8CED4",
"! c #D1D7DB",
"~ c #D6DCDF",
"^ c #D7DDE0",
"/ c #E1E6E8",
"( c #E2E7E9",
") c #E3E8EA",
"_ c #E7ECED",
"` c #E8EDEE",
"' c #EBF0F1",
/* pixels */
"%%%%%%%%%%%%&%%%%%%%%%%%%%%%%%%%",
"%dy1tvcq%%%34XXXXXX43%%%qcvt1yd*",
"%dCUVe7jmt%34XXXXXX43%rmj7eVUCd*",
"%dC(~EHf>l%34XXXXX.43%k>fHE~(Cd*",
"%dC_'')!Yp%34XXXXXX43%iY!)''_Cd*",
"%dC_''''Qp%34######43%iQ''''_Cd*",
"%dC_''''Qp%34######43%iQ''''_Cd*",
"%dC_''''Qh%34######43%hQ''''_Cd*",
"%dC_''''Qh%34######43%hQ''''_Cd*",
"%dC_''''Qh&34######43%hQ''''_Cd*",
"%dC^/`''Qh%34######43%hQ''`/^Cd*",
"%dsGJITWRh%34######43%hRWTIJGsd*",
"%xq85<20uh%34######43%hu02<58qx*",
"%FFFFFDMnN%34######43%NnMDFFFFF*",
"%FFFFFFFFF%34######43%FFFFFFFFF*",
"%FFFFFFFFF%34######43%FFFFFFFFF*",
"%FFFFFFFBA%34######43%ABFFFFFFF*",
"%FFFFFFF6z%..........%z6FFFFFFF*",
"%FFFFFFFFF%OOO OOO OO%FFFFFFFFF*",
"%FFFFFFFFF%oO + O +oO%FFFFFFFFF*",
"%FFFFFFFFF%+ +++ XXX %FFFFFFFFF*",
"%FFFFFFFFF% + + + +o+%FFFFFFFFF*",
"%FFFFFFFFF%999 999 99%FFFFFFFFF*",
"%FFFFFFFFF% 9 w 9 w 9%FFFFFFFFF*",
"%FFFFFFFFS%w www www %ZFFFFFFFF*",
"%FFFFFFFFS%@a@w@a@w@a%ZFFFFFFFF*",
"%FFFFFFFFS%aaa@aaa@aa%ZFFFFFFFF*",
"%FFFFFFFFS%@a@g@a@g@a%ZFFFFFFFF*",
"%FFFFFFFF%%g-ggg-ggg-%>FFFFFFFF*",
"%FFFFFFS%%K;K-g-K-g-K$=:SFFFFFF*",
"%FFFF,>%%P-KbL-KKK-KKP$%=>,FFFF*",
"%%%%%%%%%%%%%%%%%%%%%%%%%%%%%%%%"
};
