/* XPM */
static char *result[] = {
/* columns rows colors chars-per-pixel */
"32 32 24 1 ",
"  c black",
". c #202028",
"X c #5A0C0C",
"o c #600000",
"O c #303040",
"+ c #474751",
"@ c #5B5B5B",
"# c gray48",
"$ c #A80000",
"% c #9C2323",
"& c #C83838",
"* c #964A30",
"= c #F88058",
"- c #034C86",
"; c #0078D8",
": c #6FB9F4",
"> c #28C0D8",
", c #AAAAB2",
"< c #F8B890",
"1 c #A8A0C8",
"2 c #C8C8D8",
"3 c #E8E8F8",
"4 c #F8F8F8",
"5 c None",
/* pixels */
"55555555555555555555555555555555",
"55555555555555555%%5555555555555",
"5555555555555@@@@X%@@55555555555",
"555555555555@3221XX23@5555555555",
"55555555555@32XX%%X&23@555555555",
"5555555555@32&%%&%%%X23@55555555",
"5555555555@21%%%&&%%%12@55555555",
"55555555XX@2X%%&&&&%%X2@55555555",
"5555555X&&X1X%&&&&&&%X1@55555555",
"5555555XXXXXX%%&&&&%%X1@55555555",
"5555555555 XXX%%%%%%XXX 55555555",
"5555555555     ..       @@555555",
"5555555555 =44=          5555555",
"5555555555 = 4<<.<<  ..    55555",
"55555555   = 4<<.=$  . @@= 55555",
"5555555 << <==<<<$.   ---$ 55555",
"5555555 <= O<<===33+; ;-- 555555",
"55555555*===O*---++;;;--55555555",
"555555555o**,4-;>>>;;O 555555555",
"5555555555oo,,4---;;;O5555555555",
"555555555555oooo---;;O5555555555",
"555555555555555-oo----5555555555",
"5555555555555----;::;-5555555555",
"5555555555 5------;::-55--555555",
"555555555 >-;;--55 ;:;---> 55555",
"555555555 >;---5555 ;::;;4 55555",
"5555555555 ;;-555555   >44 55555",
"55555555555   555555555   555555",
"55555555555555555555555555555555",
"55555555555##############5555555",
"555555555555555##########5555555",
"55555555555555555555555555555555"
};
