/* XPM */
static char *result[] = {
/* columns rows colors chars-per-pixel */
"32 32 23 1 ",
"  c black",
". c #202028",
"X c #5A0C0C",
"o c #600000",
"O c #5B5B5B",
"+ c gray48",
"@ c #A80000",
"# c #9C2323",
"$ c #C83838",
"% c #964A30",
"& c #1E8A35",
"* c #F88058",
"= c #034C86",
"- c #0078D8",
"; c #6FB9F4",
": c #28C0D8",
"> c #AAAAB2",
", c #F8B890",
"< c #A8A0C8",
"1 c #C8C8D8",
"2 c #E8E8F8",
"3 c #F8F8F8",
"4 c None",
/* pixels */
"44444444444444444444444444444444",
"44444444444444444444444444444444",
"44444444444444444444444444444444",
"4444444444444444##44444444444444",
"444444444444OOOOX#OO444444444444",
"44444444444O211<XX12O44444444444",
"4444444444O21<X##X#$2O4444444444",
"444444444O21X###$##X12O444444444",
"444444444O1<###$$###<1O444444444",
"444444444O1X##$$$$##X1O444444444",
"444444444O<X#$$$$$$#X<X444444444",
"444444444O<X##$$$$##XXXXX4444444",
"444444444 XXX######XXX $$X444444",
"4444444OO       ..   XXXXX444444",
"44444444     ,, ,,3 * 4444444444",
"444444    .. @*.,,3 * 4444444444",
"44444444OO .  @,,,**, 4444444444",
"444444444   --=***,, 44444444444",
"4444444444 ----=3:o  44444444444",
"4444444444 ---=3>%*,, 4444444444",
"4444444444=--==>%***, 4444444444",
"4444444444=-=-=oooooo44444444444",
"4444444444=--==&=444444444444444",
"4444444444====oo=444444444444444",
"4444444444==;;-== 44444444444444",
"44444444444=;-====44444444444444",
"44444444 ==;;- === 4444444444444",
"4444444 :-;-  4   : 444444444444",
"4444444 3:= 44 ==- 4444444444444",
"44444444 3: +++   44444444444444",
"444444444  ++++++444444444444444",
"44444444444444444444444444444444"
};
