/* XPM */
static char *result[] = {
/* columns rows colors chars-per-pixel */
"32 32 24 1 ",
"  c black",
". c #202028",
"X c #5A0C0C",
"o c #600000",
"O c #303040",
"+ c #5B5B5B",
"@ c gray48",
"# c #A80000",
"$ c #9C2323",
"% c #C83838",
"& c #964A30",
"* c #1E8A35",
"= c #2FAF4B",
"- c #F88058",
"; c #034C86",
": c #0078D8",
"> c #6FB9F4",
", c #28C0D8",
"< c #F8B890",
"1 c #A8A0C8",
"2 c #C8C8D8",
"3 c #E8E8F8",
"4 c #F8F8F8",
"5 c None",
/* pixels */
"55555555555555555555555555555555",
"55555555555555555555555555555555",
"55555555555555555555555555555555",
"5555555555555555$$55555555555555",
"555555555555++++X$++555555555555",
"55555555555+3221XX23+55555555555",
"5555555555+321X$$X$%3+5555555555",
"555555555+32X$$$%$$X23+555555555",
"555555555+21$$$%%$$$12+555555555",
"555555555+2X$$%%%%$$X2+555555555",
"555555555+1X$%%%%%%$X1X555555555",
"555555555+1X$$%%%%$$XXXXX5555555",
"555555555 XXX$$$$$$XXX %%X555555",
"5555555++       ..    XXXX555555",
"55555555     << <<4 - 5555555555",
"555555    .. #-.<<4 - 5555555555",
"55555555++ .  #-<<--< 5555555555",
"5555555555;;   ---<< oo555555555",
"555555555oo:;O  &&&.&&- 55555555",
"55555555o<<o:;:;;..&&&& 55555555",
"55555555o<-o;:;*;  oo  555555555",
"555555555oo;:;;=;555555555555555",
"5555555555;:;;**;555555555555555",
"5555555555;;;;ooO555555555555555",
"5555555555 :::>>:555555555555555",
"55555555   ;;;:>>:55555555555555",
"5555555 : ;; ;;>>:55555555555555",
"5555555 ::   5;:>; 5555555555555",
"55555555 :: 55; :,4 555555555555",
"555555555  @@@ ,44 5555555555555",
"5555555555@@@@@   55555555555555",
"55555555555555555555555555555555"
};
