/* XPM */
static char *result[] = {
/* columns rows colors chars-per-pixel */
"32 32 19 1 ",
"  c black",
". c #5A0C0C",
"X c #5B5B5B",
"o c gray48",
"O c #9C2323",
"+ c #C83838",
"@ c #964A30",
"# c #F88058",
"$ c #034C86",
"% c #0078D8",
"& c #6FB9F4",
"* c #28C0D8",
"= c #AAAAB2",
"- c #F8B890",
"; c #A8A0C8",
": c #C8C8D8",
"> c #E8E8F8",
", c #F8F8F8",
"< c None",
/* pixels */
"<<<<<<<<<<<<<<<<<<<<<<<<<<<<<<<<",
"<<<<<<<<<<<<<<<<<<<<<<<<<<<<<<<<",
"<<<<<<<<<<<<<<<<<<<<<<<<<<<<<<<<",
"<<<<<<<<<<<<XXXXXXXX<<<<<<<<<<<<",
"<<<<<<<<<<<XO:>OO>:OX<<<<<<<<<<<",
"<<<<<<<<<<O+OOO..OOO+O<<<<<<<<<<",
"<<<<<<<<<.+O.:>OO>:.O+.<<<<<<<<<",
"<<<<<<<<<.+O:>>::>>:O+.<<<<<<<<<",
"<<<<<<<<<.O.:>>::>>:.O.<<<<<<<<<",
"<<<<<<<<<.O:>>>::>>>:O.<<<<<<<<<",
"<<<<<<<<<.O:>>>::>>>:O.<<<<<<<<<",
"<<<<<<<<< .:>>>::>>>:. <<<<<<<<<",
"<<<<<<<<X  ::>>::>>::. XX<<<<<<<",
"<<<<<<<X    :::::::::   <<<<<<<<",
"<<<<<<<<     ::;;::       <<<<<<",
"<<<<<<  XXX          XX  <<<<<<<",
"<<<<<<<<<<           $ @# <<<<<<",
"<<<<<<<<< $$$      $$$,=@ <<<<<<",
"<<<<<<<< ,$$%$$$$$$%%$$= <<<<<<<",
"<<<<<<  @==$$%%%%%%%%%$ <<<<<<<<",
"<<<<< --#@$<$%%%%%%$$$<,<<<<<<<<",
"<<<<< ###$,<$%%%%%%$<<<<<<<<<<<<",
"<<<<<<   <<<$%%%%%%$<<<<<<<<<<<<",
"<<<<<<<<<<<< $$$$$$$<<<<<<<<<<<<",
"<<<<<<<<<<<< $$$%%%$<<<<<<<<<<<<",
"<<<<<<<<<<<<  $$%&&$<<<<<<<<<<<<",
"<<<<<<<<<<< %% $$&&$<<<<<<<<<<<<",
"<<<<<<<<<<<<   $$$$$<<<<<<<<<<<<",
"<<<<<<<<<<<<<<<  %** <<<<<<<<<<<",
"<<<<<<<<<<<<<ooo %*, <<<<<<<<<<<",
"<<<<<<<<<<<<<<ooo   <<<<<<<<<<<<",
"<<<<<<<<<<<<<<<<<<<<<<<<<<<<<<<<"
};
