/* XPM */
static char *result[] = {
/* columns rows colors chars-per-pixel */
"32 32 25 1 ",
"  c black",
". c #202028",
"X c #5A0C0C",
"o c #600000",
"O c #303040",
"+ c #5B5B5B",
"@ c gray48",
"# c #A80000",
"$ c #9C2323",
"% c #C83838",
"& c #964A30",
"* c #1E8A35",
"= c #2FAF4B",
"- c #F88058",
"; c #034C86",
": c #0078D8",
"> c #6FB9F4",
", c #28C0D8",
"< c #AAAAB2",
"1 c #F8B890",
"2 c #A8A0C8",
"3 c #C8C8D8",
"4 c #E8E8F8",
"5 c #F8F8F8",
"6 c None",
/* pixels */
"66666666666666666666666666666666",
"6666666666666$$66666666666666666",
"66666666666++$X++++6666666666666",
"6666666666+43XX2334+666666666666",
"666666666+43%X$$XX34+66666666666",
"66666666+43X$$$%$$%34+6666666666",
"66666666+32$$$%%$$$23+6666666666",
"66666666+3X$$%%%%$$X3+XX66666666",
"66666666+2X$%%%%%%$X2X%%X6666666",
"66666666+2X$$%%%%$$XXXXXX6666666",
"66666666 XXX$$$$$$XXX 6666666666",
"666666++       ..     6666666666",
"6666666          -55- 6666666666",
"66666    ..  11.115 - 6  6666666",
"6666 o6++  . #-.115 -  &- 666666",
"666 11oo;;;  .#-11--1 &&& 666666",
"666 1--o;;;:  .---11 <&& 6666666",
"666 oooo;;;:;;  &&& ;<oo66666666",
"6666666666;:;:;*     o6666666666",
"6666666666;;:;*=;666666666666666",
"6666666666;:;*=*;666666666666666",
"6666666666OOOoooO666666666666666",
"6666666666 ::>>>>::6666666666666",
"666666  66 ::;;:>>>;6 6666666666",
"66666 :   ;; 66;:>>; 5 666666666",
"66666 : ;;; 6666;:;:,5 666666666",
"66666 ::   666666;:,5 6666666666",
"666666  666666666    66666666666",
"66666666666666666666666666666666",
"666666@@@@@@@@@@@666666666666666",
"666666@@@@@@@@@@@@@@@66666666666",
"66666666666666666666666666666666"
};
