/* XPM */
static char *result[] = {
/* columns rows colors chars-per-pixel */
"32 32 24 1 ",
"  c black",
". c #202028",
"X c #5A0C0C",
"o c #600000",
"O c #474751",
"+ c #5B5B5B",
"@ c #9C2323",
"# c #C83838",
"$ c #964A30",
"% c #1E8A35",
"& c #2FAF4B",
"* c #F88058",
"= c #034C86",
"- c #0078D8",
"; c #6FB9F4",
": c gray64",
"> c #AAAAB2",
", c #F8B890",
"< c #A8A0C8",
"1 c #C8C8D8",
"2 c #D5D5D5",
"3 c #E8E8F8",
"4 c #F8F8F8",
"5 c None",
/* pixels */
"55555555555555555555555555555555",
"55555555555555555555555555555555",
"555555555555555@@555555555555555",
"555555555555#@@@@@@#555555555555",
"55555555555#@111111@#55555555555",
"5555555555@@13313331@@5555555555",
"555555555X@1133313311@X555555555",
"555555555X@1133133311@X555555555",
"555555555X@<11311311<@X555555555",
"555555555X@@<11<<11<@@X555555555",
"555555555X@#@@@@@@@@#@X555555555",
"555555555 XX########XX 555555555",
"5555555++  XX@@@@@@XX  ++5555555",
"55555555  . *2:**:2* .  55555555",
"555555     *,4 ,, 4,*     555555",
"55555555++ *,2 ,, 2,* ++55555555",
"5555555555+ ***,,***.+5555555555",
"5555555555.O *,,,,* O.5555555555",
"555555555 -O4=$$$$=4O-.555555555",
"55555555 4==OO====OO==4.55555555",
"5555555 $>> =-=&&=-==>>$ 5555555",
"555555 **$ 5=-=%%=-=5 $** 555555",
"555555 ,* 55=-=%%=-=55 ,* 555555",
"555555 ,* 55===oo===55 ,* 555555",
"5555555  555=;----;=555  5555555",
"555555555555=;-==-;=555555555555",
"555555555555=--==--=555555555555",
"55555555555 ;======; 55555555555",
"55555555555 4;;  ;;4 55555555555",
"555555555555        555555555555",
"55555555555555555555555555555555",
"55555555555555555555555555555555"
};
