/* XPM */
static char *result[] = {
/* columns rows colors chars-per-pixel */
"32 32 20 1 ",
"  c black",
". c #5A0C0C",
"X c #600000",
"o c #5B5B5B",
"O c gray48",
"+ c #9C2323",
"@ c #C83838",
"# c #964A30",
"$ c #F88058",
"% c #034C86",
"& c #0078D8",
"* c #6FB9F4",
"= c #28C0D8",
"- c #AAAAB2",
"; c #F8B890",
": c #A8A0C8",
"> c #C8C8D8",
", c #E8E8F8",
"< c #F8F8F8",
"1 c None",
/* pixels */
"11111111111111111111111111111111",
"11111111111111111111111111111111",
"111111111111oooooooo111111111111",
"11111111111o++,@+,>>o11111111111",
"1111111111+@+++..+++@+1111111111",
"111111111.@+>>,+@,+.+@.111111111",
"111111111.@>>,>>>,,++@.111111111",
"111111111.+>,,>>,,,>++.111111111",
"111111111.+>,,>>,,,,++.111111111",
"111111111.+>,,>>,,,,>+.111111111",
"111111111 .>,,>>,,,,>. 111111111",
"1111111oo .>>,>>,,,>>  o11111111",
"111111 $   >>>>>>>>>    o1111111",
"111111       >::>>>     11111111",
"111111 ##oo          ooo  111111",
"111111 #-<%           1111111111",
"1111111 -%%&%      %%% 111111111",
"11111111 %&&&%%%%%&%<-  11111111",
"111111111%%&&&&&&&&X-#;; 1111111",
"1111111111%%%&&&&&&X#$$$ 1111111",
"11111111111%%&&&&&&%XXXX11111111",
"111111111111%%&&&&&%111111111111",
"111111111111%%%&&&%%111111111111",
"111111111111%&%%%%%%111111111111",
"111111111111%**&%%%1111111111111",
"111111111111%%*&%%11111111111111",
"11111111111 <<%& 111111111111111",
"11111111111 ==% 1111111111111111",
"11111111111 &&& OOOO111111111111",
"111111111111   OOOO1111111111111",
"111111111111OOOOOO11111111111111",
"11111111111111111111111111111111"
};
