/* XPM */
static char *result[] = {
/* columns rows colors chars-per-pixel */
"32 32 24 1 ",
"  c black",
". c #202028",
"X c #5A0C0C",
"o c #600000",
"O c #303040",
"+ c #5B5B5B",
"@ c gray48",
"# c #A80000",
"$ c #9C2323",
"% c #C83838",
"& c #964A30",
"* c #1E8A35",
"= c #2FAF4B",
"- c #F88058",
"; c #034C86",
": c #0078D8",
"> c #6FB9F4",
", c #28C0D8",
"< c #F8B890",
"1 c #A8A0C8",
"2 c #C8C8D8",
"3 c #E8E8F8",
"4 c #F8F8F8",
"5 c None",
/* pixels */
"55555555555555555555555555555555",
"55555555555555555555555555555555",
"55555555555555555555555555555555",
"55555555555555$$5555555555555555",
"555555555555++$X++++555555555555",
"55555555555+32XX1223+55555555555",
"5555555555+3%$X$$X123+5555555555",
"555555555+32X$$%$$$X23+555555555",
"555555555+21$$$%%$$$12+555555555",
"555555555+2X$$%%%%$$X2+555555555",
"555555555X1X$%%%%%%$X1+555555555",
"5555555XXXXX$$%%%%$$X1+555555555",
"555555X%% XXX$$$$$$XXX 555555555",
"555555XXXX    ..       ++5555555",
"5555555555 - 4<< <<     55555555",
"5555555555 - 4<<.-# ..    555555",
"5555555555 <--<<-#  . ++55555555",
"555555555oo <<---   ;;5555555555",
"55555555 -&&.&&&  O;:oo555555555",
"55555555 &&&&..;;:;:o<<o55555555",
"555555555  oo  ;*;:;o-<o55555555",
"555555555555555;=;;:;oo555555555",
"555555555555555;**;;:;5555555555",
"555555555555555Ooo;;;;5555555555",
"555555555555555:>>::: 5555555555",
"55555555555555:>>:;;;   55555555",
"55555555555555:>>;; ;; : 5555555",
"5555555555555 ;>:;5   :: 5555555",
"555555555555 4,: ;55 :: 55555555",
"5555555555555 44, @@@  555555555",
"55555555555555   @@@@@5555555555",
"55555555555555555555555555555555"
};
