/* XPM */
static char *result[] = {
/* columns rows colors chars-per-pixel */
"32 32 26 1 ",
"  c black",
". c #202028",
"X c #5A0C0C",
"o c #600000",
"O c #474751",
"+ c #5B5B5B",
"@ c gray48",
"# c #9C2323",
"$ c #C83838",
"% c #964A30",
"& c #1E8A35",
"* c #2FAF4B",
"= c #F88058",
"- c #034C86",
"; c #0078D8",
": c #6FB9F4",
"> c #28C0D8",
", c gray64",
"< c #AAAAB2",
"1 c #F8B890",
"2 c #A8A0C8",
"3 c #C8C8D8",
"4 c #D5D5D5",
"5 c #E8E8F8",
"6 c #F8F8F8",
"7 c None",
/* pixels */
"77777777777777777777777777777777",
"777777777777777##777777777777777",
"777777777777$######$777777777777",
"77777777777$#333333#$77777777777",
"7777777777##35533353##7777777777",
"777777777X#3355533553#X777777777",
"777777777X#3555533553#X777777777",
"777777777X#3355533533#X777777777",
"777777777X##33332233##X777777777",
"777777777X#$########$#X777777777",
"777777777 XX$$$$$$$$XX 777777777",
"77777777+  XX######XX  ++7777777",
"7777777+  . =4,==,4= .  77777777",
"77777777   =16 11 61=     o77777",
"777777  ++ =14 11 41= ++=% 77777",
"7777777777+  ==11=== +6<% 777777",
"7777777777o11.1111= O;-< 7777777",
"777777777%=1= %%%%O>O;- 77777777",
"77777777%=1=o-----OO;- 777777777",
"77777777o%=o--;-*&-;- 7777777777",
"777777777oo -;;-*&-- 77777777777",
"77777777777--;;-&&--777777777777",
"777777777777---ooo--777777777777",
"777777777777-;---;:-777777777777",
"7777777777777---;::-777777777777",
"77777777777777--;:- 777777777777",
"777777777777777 ;-66 77777777777",
"7777777777777777  :: 77777777777",
"777777777777@@@@ ;;; 77777777777",
"7777777777777@@@@   777777777777",
"77777777777777@@@@@@777777777777",
"77777777777777777777777777777777"
};
