/* XPM */
static char *result[] = {
/* columns rows colors chars-per-pixel */
"32 32 6 1 ",
"  c #3E2731",
". c #733E39",
"X c #262B44",
"o c #3A4466",
"O c #5A6988",
"+ c #8B9BB4",
/* pixels */
"XooOOoOOOOOOOOOOoOooOOOOOOOOOOOO",
"XXOO O OOoXXoXX+Xo  XoXoX   XXX+",
"XOX OXOX+XXXXXX+X oXoXXXoX OXXXO",
"XXO XoXX.XXXXXo+XXXXOOX  XOXXXO+",
"XXOXoXX+XoXXXoXOXXOOX  XOOXXXXO+",
"XXXOXX.XXXXooXXOXXX X +OXXXXXo++",
"XXoXOXXXOXXXX+O+XXXX +XXXXXXo+X+",
"XXXXXXXXXOO+XXXOXo  XXXXXOXX+X O",
"XoXXXXXXXXOXXXX+XXooXXXoXoooO  +",
"XXXXXoXXXXOXXXX+XX XooXXOoX.OXo+",
"XXXXoooXXoXOXXoOXXXXOoXOXX.OooX+",
"XXXXoXOXXXXXOOo+XXXXXXoOXoOooX +",
"XXXoo+XXXXXoooOOXXXOXoOXo..oXXo+",
"XXoo+XXXXXXoooo+XX+ooO .oooXooX+",
"XXXoXXXo  o ooo+XXXXX  oo XoXoX+",
"XXXXXXXXXXXXXXXXXXXXXXXXXXXXXXXX",
"ooOOOOOOOOOOOOO+OooOOOOOOOOOOOOO",
"XXXXoXX oXOOOXo+X XXXo X  OoXoX+",
"Xoo  oXXoXX XO+OXXXX.XXXX oooXXO",
"XXXXooXOXXXXXooOX XoX   XOoXXXo+",
"XoXoXXOXoXXXoXX+XXoX XoX XXoXoXO",
"XoOooOooXXXoOXXOXoX XXXXXooXoXXO",
"XXXOo+ooOXoOXXX+XXXXoOXXooo+XoX+",
"XoX oooOXX+XXXOOXoooXXOXXooXoX +",
"Xo XoOOoXXOXXOo+XoX XXXoo+oXXX O",
"Xo  oOoo++XXooX+XoXXXXXXXXXXX X+",
"X o o+O+ooOOXoX+XX XXXooXXXOXX +",
"X XX+OOooOoXoXX+X XXXooooXXXOXo+",
"XXX+OoOoOoooXoX+XXoXX+XoXX.X OX+",
"XX+OoOooOooXoXoOXoXX+XXoo   oXO+",
"XXOOOoOooOoooooOXXXoXXXXXXXXXXX+",
"XXXXXXXXXXXXX XXXXXXXXXXXXXXXXXX"
};
