/* XPM */
static char *result[] = {
/* columns rows colors chars-per-pixel */
"96 32 2 1 ",
"  c red",
". c None",
/* pixels */
"................................................................................................",
"................................................................................................",
"................................................................................................",
".................................................  ....  ....     ....   ...  ..................",
".................................................   ..   ...  ...  ...   ...  ..................",
"..................................................  ..  ...   ....  ..   ...  ..................",
"..................................................     ....  .....  ..   ...  ..................",
"...................................................    ....  .....  ..   ...  ..................",
"....................................................  .....  .....  ..   ...  ..................",
"....................................................  .....   ...   ..   ...  ..................",
"....................................................  ......  ...  ...   ...  ..................",
"....................................................  .......     .....      ...................",
"................................................................................................",
"................................................................................................",
"................................................................................................",
"................................................................................................",
"................................................................................................",
"................................................................................................",
"................................................................................................",
"................................................................................................",
".......................................   .......     ......     ......     ..       ..   ......",
".......................................   ......  ...  ....  ...  ...   ... ..   ......   ......",
".......................................   .....   ....  ..   ....  ..  .......   ......   ......",
".......................................   .....  .....  ..  .....  ..   ......   ......   ......",
".......................................   .....  .....  ..  .....  ...      ..       ...  ......",
".......................................   .....  .....  ..  .....  ......    .   .......  ......",
".......................................   .....   ...   ..   ...   .......   .   ...............",
".......................................   ......  ...  ....  ...  ...  ...  ..   ......   ......",
".......................................       ...     ......     ....      ...       ..   ......",
"................................................................................................",
"................................................................................................",
"................................................................................................"
};
